<mxfile host="app.diagrams.net" agent="Mozilla/5.0 (Windows NT 10.0; Win64; x64) AppleWebKit/537.36 (KHTML, like Gecko) Chrome/136.0.0.0 Safari/537.36" version="27.0.9">
  <diagram name="Sequence - detectLowStockItems()" id="sequence-1">
    <mxGraphModel dx="940" dy="517" grid="1" gridSize="10" guides="1" tooltips="1" connect="1" arrows="1" fold="1" page="1" pageScale="1" pageWidth="827" pageHeight="1169" math="0" shadow="0">
      <root>
        <mxCell id="0" />
        <mxCell id="1" parent="0" />
        <mxCell id="86hexkFTFtTpV62cVOlB-42" value="SupplierService &amp;lt;&amp;lt;interface&amp;gt;&amp;gt;" style="rounded=0;whiteSpace=wrap;html=1;" vertex="1" parent="1">
          <mxGeometry x="81" y="120" width="120" height="60" as="geometry" />
        </mxCell>
        <mxCell id="86hexkFTFtTpV62cVOlB-43" value="" style="endArrow=none;dashed=1;html=1;dashPattern=1 3;strokeWidth=2;rounded=0;" edge="1" parent="1" source="86hexkFTFtTpV62cVOlB-45" target="86hexkFTFtTpV62cVOlB-42">
          <mxGeometry width="50" height="50" relative="1" as="geometry">
            <mxPoint x="140.17000000000007" y="629" as="sourcePoint" />
            <mxPoint x="140.17000000000007" y="229" as="targetPoint" />
          </mxGeometry>
        </mxCell>
        <mxCell id="86hexkFTFtTpV62cVOlB-44" value="" style="endArrow=none;dashed=1;html=1;dashPattern=1 3;strokeWidth=2;rounded=0;" edge="1" parent="1" target="86hexkFTFtTpV62cVOlB-45">
          <mxGeometry width="50" height="50" relative="1" as="geometry">
            <mxPoint x="140" y="510" as="sourcePoint" />
            <mxPoint x="141" y="270" as="targetPoint" />
          </mxGeometry>
        </mxCell>
        <mxCell id="86hexkFTFtTpV62cVOlB-45" value="" style="rounded=0;whiteSpace=wrap;html=1;" vertex="1" parent="1">
          <mxGeometry x="131" y="200" width="20" height="280" as="geometry" />
        </mxCell>
        <mxCell id="86hexkFTFtTpV62cVOlB-50" value="InventoryService" style="rounded=0;whiteSpace=wrap;html=1;" vertex="1" parent="1">
          <mxGeometry x="308" y="120" width="120" height="60" as="geometry" />
        </mxCell>
        <mxCell id="86hexkFTFtTpV62cVOlB-51" value="" style="endArrow=none;dashed=1;html=1;dashPattern=1 3;strokeWidth=2;rounded=0;entryX=0.5;entryY=1;entryDx=0;entryDy=0;" edge="1" parent="1">
          <mxGeometry width="50" height="50" relative="1" as="geometry">
            <mxPoint x="361" y="510" as="sourcePoint" />
            <mxPoint x="361" y="180" as="targetPoint" />
          </mxGeometry>
        </mxCell>
        <mxCell id="86hexkFTFtTpV62cVOlB-52" value="" style="rounded=0;whiteSpace=wrap;html=1;" vertex="1" parent="1">
          <mxGeometry x="351" y="200" width="20" height="280" as="geometry" />
        </mxCell>
        <mxCell id="86hexkFTFtTpV62cVOlB-53" value="InventoryItem" style="rounded=0;whiteSpace=wrap;html=1;" vertex="1" parent="1">
          <mxGeometry x="471" y="120" width="120" height="60" as="geometry" />
        </mxCell>
        <mxCell id="86hexkFTFtTpV62cVOlB-54" value="" style="endArrow=none;dashed=1;html=1;dashPattern=1 3;strokeWidth=2;rounded=0;" edge="1" parent="1" source="86hexkFTFtTpV62cVOlB-56" target="86hexkFTFtTpV62cVOlB-53">
          <mxGeometry width="50" height="50" relative="1" as="geometry">
            <mxPoint x="530.1700000000001" y="620" as="sourcePoint" />
            <mxPoint x="530.1700000000001" y="220" as="targetPoint" />
          </mxGeometry>
        </mxCell>
        <mxCell id="86hexkFTFtTpV62cVOlB-55" value="" style="endArrow=none;dashed=1;html=1;dashPattern=1 3;strokeWidth=2;rounded=0;" edge="1" parent="1" target="86hexkFTFtTpV62cVOlB-56">
          <mxGeometry width="50" height="50" relative="1" as="geometry">
            <mxPoint x="530" y="500" as="sourcePoint" />
            <mxPoint x="531" y="261" as="targetPoint" />
          </mxGeometry>
        </mxCell>
        <mxCell id="86hexkFTFtTpV62cVOlB-56" value="" style="rounded=0;whiteSpace=wrap;html=1;" vertex="1" parent="1">
          <mxGeometry x="521" y="200" width="20" height="280" as="geometry" />
        </mxCell>
        <mxCell id="86hexkFTFtTpV62cVOlB-59" value="" style="endArrow=classic;html=1;rounded=0;exitX=0.942;exitY=0.096;exitDx=0;exitDy=0;exitPerimeter=0;" edge="1" parent="1" source="86hexkFTFtTpV62cVOlB-45">
          <mxGeometry width="50" height="50" relative="1" as="geometry">
            <mxPoint x="370" y="370" as="sourcePoint" />
            <mxPoint x="350" y="226" as="targetPoint" />
          </mxGeometry>
        </mxCell>
        <mxCell id="86hexkFTFtTpV62cVOlB-60" value="notifyDelivery(itemID, quantity)" style="text;html=1;align=center;verticalAlign=middle;resizable=0;points=[];autosize=1;strokeColor=none;fillColor=none;" vertex="1" parent="1">
          <mxGeometry x="151" y="200" width="190" height="30" as="geometry" />
        </mxCell>
        <mxCell id="86hexkFTFtTpV62cVOlB-61" value="" style="endArrow=classic;html=1;rounded=0;" edge="1" parent="1">
          <mxGeometry width="50" height="50" relative="1" as="geometry">
            <mxPoint x="372" y="264" as="sourcePoint" />
            <mxPoint x="520" y="264" as="targetPoint" />
          </mxGeometry>
        </mxCell>
        <mxCell id="86hexkFTFtTpV62cVOlB-62" value="receive(quantity)" style="text;html=1;align=center;verticalAlign=middle;resizable=0;points=[];autosize=1;strokeColor=none;fillColor=none;" vertex="1" parent="1">
          <mxGeometry x="390" y="240" width="110" height="30" as="geometry" />
        </mxCell>
      </root>
    </mxGraphModel>
  </diagram>
</mxfile>
